<svg id="visual" viewBox="0 0 900 600" width="900" height="600" xmlns="http://www.w3.org/2000/svg" xmlns:xlink="http://www.w3.org/1999/xlink" version="1.1"><path d="M0 411L129 434L257 376L386 399L514 374L643 424L771 429L900 386L900 601L771 601L643 601L514 601L386 601L257 601L129 601L0 601Z" fill="#e3651d"></path><path d="M0 420L129 465L257 458L386 447L514 466L643 432L771 430L900 429L900 601L771 601L643 601L514 601L386 601L257 601L129 601L0 601Z" fill="#ca4d24"></path><path d="M0 484L129 496L257 461L386 491L514 509L643 494L771 487L900 454L900 601L771 601L643 601L514 601L386 601L257 601L129 601L0 601Z" fill="#af3626"></path><path d="M0 522L129 541L257 485L386 484L514 490L643 527L771 516L900 489L900 601L771 601L643 601L514 601L386 601L257 601L129 601L0 601Z" fill="#922125"></path><path d="M0 529L129 544L257 556L386 567L514 550L643 539L771 562L900 540L900 601L771 601L643 601L514 601L386 601L257 601L129 601L0 601Z" fill="#750e21"></path></svg>