<svg id="visual" viewBox="0 0 900 600" width="900" height="600" xmlns="http://www.w3.org/2000/svg" xmlns:xlink="http://www.w3.org/1999/xlink" version="1.1"><path d="M0 97L82 133L164 115L245 163L327 55L409 151L491 145L573 67L655 127L736 103L818 85L900 133L900 0L818 0L736 0L655 0L573 0L491 0L409 0L327 0L245 0L164 0L82 0L0 0Z" fill="#97afe6"></path><path d="M0 283L82 259L164 187L245 247L327 235L409 337L491 313L573 223L655 235L736 301L818 313L900 355L900 131L818 83L736 101L655 125L573 65L491 143L409 149L327 53L245 161L164 113L82 131L0 95Z" fill="#6f87d1"></path><path d="M0 349L82 343L164 283L245 313L327 325L409 415L491 355L573 301L655 289L736 403L818 409L900 451L900 353L818 311L736 299L655 233L573 221L491 311L409 335L327 233L245 245L164 185L82 257L0 281Z" fill="#4c60b9"></path><path d="M0 535L82 529L164 511L245 541L327 487L409 529L491 469L573 481L655 529L736 535L818 505L900 535L900 449L818 407L736 401L655 287L573 299L491 353L409 413L327 323L245 311L164 281L82 341L0 347Z" fill="#2b399f"></path><path d="M0 601L82 601L164 601L245 601L327 601L409 601L491 601L573 601L655 601L736 601L818 601L900 601L900 533L818 503L736 533L655 527L573 479L491 467L409 527L327 485L245 539L164 509L82 527L0 533Z" fill="#030e82"></path></svg>